<svg width="16" height="16" viewBox="0 0 16 16" fill="none" xmlns="http://www.w3.org/2000/svg">
<path d="M10.3527 5.63278C10.1901 5.47602 9.99501 5.35694 9.78125 5.284C9.56749 5.21105 9.3403 5.18602 9.11578 5.21068C8.89126 5.23534 8.67492 5.30908 8.48208 5.42668C8.28924 5.54428 8.12464 5.70286 7.99993 5.89118C7.87521 5.70286 7.71061 5.54428 7.51777 5.42668C7.32493 5.30908 7.10859 5.23534 6.88407 5.21068C6.65956 5.18602 6.43236 5.21105 6.2186 5.284C6.00484 5.35694 5.80973 5.47602 5.64713 5.63278C5.50555 5.77253 5.39315 5.93901 5.31642 6.12255C5.2397 6.3061 5.2002 6.50305 5.2002 6.70198C5.2002 6.90091 5.2397 7.09786 5.31642 7.2814C5.39315 7.46495 5.50555 7.63142 5.64713 7.77118L7.99993 10.1L10.3527 7.77038C10.4943 7.63069 10.6067 7.46428 10.6834 7.28081C10.7601 7.09733 10.7996 6.90044 10.7996 6.70158C10.7996 6.50271 10.7601 6.30583 10.6834 6.12235C10.6067 5.93887 10.4943 5.77246 10.3527 5.63278Z" stroke="#3EBDE0" stroke-width="0.8" stroke-linecap="round" stroke-linejoin="round"/>
<path d="M12.8002 6.8C12.8002 10.8 8.0002 14 8.0002 14C8.0002 14 3.2002 10.8 3.2002 6.8C3.2002 5.52696 3.70591 4.30606 4.60608 3.40589C5.50626 2.50571 6.72716 2 8.0002 2C9.27323 2 10.4941 2.50571 11.3943 3.40589C12.2945 4.30606 12.8002 5.52696 12.8002 6.8Z" stroke="#3EBDE0" stroke-width="0.8" stroke-linecap="round" stroke-linejoin="round"/>
</svg>
