<svg width="16" height="16" viewBox="0 0 16 16" fill="none" xmlns="http://www.w3.org/2000/svg">
<path d="M12.4004 7.60001V8.40001C12.4004 9.46087 11.979 10.4783 11.2288 11.2284C10.4787 11.9786 9.46126 12.4 8.40039 12.4V11.6C8.40039 10.5391 8.82182 9.52172 9.57196 8.77158C10.3221 8.02143 11.3395 7.60001 12.4004 7.60001Z" stroke="#323842" stroke-width="0.8" stroke-linecap="round" stroke-linejoin="round"/>
<path d="M8.40039 8.39999C7.8751 8.39999 7.35496 8.29653 6.86966 8.09551C6.38435 7.89449 5.9434 7.59986 5.57196 7.22842C5.20053 6.85699 4.90589 6.41603 4.70487 5.93073C4.50385 5.44543 4.40039 4.92528 4.40039 4.39999V3.59999C5.46126 3.59999 6.47867 4.02142 7.22882 4.77157C7.97896 5.52171 8.40039 6.53913 8.40039 7.59999V8.39999Z" stroke="#323842" stroke-width="0.8" stroke-linecap="round" stroke-linejoin="round"/>
<path d="M8.40039 2L8.40039 14" stroke="#323842" stroke-width="0.8" stroke-linecap="round" stroke-linejoin="round"/>
</svg>
