<svg width="20" height="20" viewBox="0 0 20 20" fill="none" xmlns="http://www.w3.org/2000/svg">
<path d="M12.5 5.5L17.5 5.5" stroke="#171A1F" stroke-linecap="round" stroke-linejoin="round"/>
<path d="M2.5 5.5L4.5 5.5" stroke="#171A1F" stroke-linecap="round" stroke-linejoin="round"/>
<path d="M7.5 14.5L2.5 14.5" stroke="#171A1F" stroke-linecap="round" stroke-linejoin="round"/>
<path d="M17.5 14.5H15.5" stroke="#171A1F" stroke-linecap="round" stroke-linejoin="round"/>
<path d="M7 8C8.38071 8 9.5 6.88071 9.5 5.5C9.5 4.11929 8.38071 3 7 3C5.61929 3 4.5 4.11929 4.5 5.5C4.5 6.88071 5.61929 8 7 8Z" stroke="#171A1F" stroke-linecap="round" stroke-linejoin="round"/>
<path d="M13 17C14.3807 17 15.5 15.8807 15.5 14.5C15.5 13.1193 14.3807 12 13 12C11.6193 12 10.5 13.1193 10.5 14.5C10.5 15.8807 11.6193 17 13 17Z" stroke="#171A1F" stroke-linecap="round" stroke-linejoin="round"/>
</svg>
