<svg width="24" height="24" viewBox="0 0 24 24" fill="none" xmlns="http://www.w3.org/2000/svg">
<path d="M18.0001 11.1428V8.57141C18.0001 6.98011 17.368 5.45399 16.2428 4.32877C15.1176 3.20355 13.5914 2.57141 12.0001 2.57141C10.4088 2.57141 8.88272 3.20355 7.7575 4.32877C6.63228 5.45399 6.00014 6.98011 6.00014 8.57141V11.1428C6.00014 13.9714 3.42871 14.6571 3.42871 16.2857C3.42871 17.7428 6.77157 18.8571 12.0001 18.8571C17.2287 18.8571 20.5716 17.7428 20.5716 16.2857C20.5716 14.6571 18.0001 13.9714 18.0001 11.1428Z" stroke="#171A1F" stroke-width="2.05714" stroke-miterlimit="10" stroke-linecap="square"/>
<path d="M11.9999 20.5714C11.1333 20.5714 10.319 20.5423 9.55273 20.4857C9.7161 21.0068 10.0416 21.4622 10.4817 21.7855C10.9219 22.1088 11.4537 22.2831 11.9999 22.2831C12.546 22.2831 13.0779 22.1088 13.518 21.7855C13.9582 21.4622 14.2837 21.0068 14.447 20.4857C13.6807 20.5423 12.8664 20.5714 11.9999 20.5714Z" fill="#171A1F"/>
</svg>
