<svg width="24" height="24" viewBox="0 0 24 24" fill="none" xmlns="http://www.w3.org/2000/svg">
<path d="M18.0005 19.2737V18.6351C18.0005 17.712 17.5059 16.86 16.7045 16.4023L13.9453 14.8234" stroke="#565E6C" stroke-width="2.05714" stroke-miterlimit="10"/>
<path d="M10.0517 14.8217L7.296 16.4023C6.49457 16.86 6 17.712 6 18.6351V19.2737" stroke="#565E6C" stroke-width="2.05714" stroke-miterlimit="10"/>
<path d="M11.9999 15.4286C10.1064 15.4286 8.57129 13.8934 8.57129 12L8.57129 10.2857C8.57129 8.39229 10.1064 6.85715 11.9999 6.85715C13.8933 6.85715 15.4284 8.39229 15.4284 10.2857V12C15.4284 13.8934 13.8933 15.4286 11.9999 15.4286Z" stroke="#565E6C" stroke-width="2.05714" stroke-miterlimit="10" stroke-linecap="square"/>
<path d="M11.9999 21.4286C17.2071 21.4286 21.4284 17.2073 21.4284 12C21.4284 6.79274 17.2071 2.57143 11.9999 2.57143C6.7926 2.57143 2.57129 6.79274 2.57129 12C2.57129 17.2073 6.7926 21.4286 11.9999 21.4286Z" stroke="#565E6C" stroke-width="2.05714" stroke-miterlimit="10" stroke-linecap="square"/>
</svg>
