<svg width="24" height="24" viewBox="0 0 24 24" fill="none" xmlns="http://www.w3.org/2000/svg">
<path d="M11.9994 13.7143C12.9462 13.7143 13.7137 12.9468 13.7137 12C13.7137 11.0532 12.9462 10.2857 11.9994 10.2857C11.0527 10.2857 10.2852 11.0532 10.2852 12C10.2852 12.9468 11.0527 13.7143 11.9994 13.7143Z" stroke="#9095A0" stroke-width="2.05714" stroke-miterlimit="10" stroke-linecap="square"/>
<path d="M4.28655 13.7143C5.23333 13.7143 6.00084 12.9468 6.00084 12C6.00084 11.0532 5.23333 10.2857 4.28655 10.2857C3.33978 10.2857 2.57227 11.0532 2.57227 12C2.57227 12.9468 3.33978 13.7143 4.28655 13.7143Z" stroke="#9095A0" stroke-width="2.05714" stroke-miterlimit="10" stroke-linecap="square"/>
<path d="M19.7143 13.7143C20.6611 13.7143 21.4286 12.9468 21.4286 12C21.4286 11.0532 20.6611 10.2857 19.7143 10.2857C18.7675 10.2857 18 11.0532 18 12C18 12.9468 18.7675 13.7143 19.7143 13.7143Z" stroke="#9095A0" stroke-width="2.05714" stroke-miterlimit="10" stroke-linecap="square"/>
</svg>
