<svg width="22" height="22" viewBox="0 0 22 22" fill="none" xmlns="http://www.w3.org/2000/svg">
<path d="M10.4502 6.05V4.95C10.4502 4.36652 10.682 3.80695 11.0946 3.39437C11.5071 2.98179 12.0667 2.75 12.6502 2.75C13.2337 2.75 13.7932 2.98179 14.2058 3.39437C14.6184 3.80695 14.8502 4.36652 14.8502 4.95L14.8502 12.1" stroke="#323842" stroke-width="1.32" stroke-miterlimit="10" stroke-linecap="square"/>
<path d="M8.25 8.25C8.25 7.66653 8.48178 7.10695 8.89436 6.69437C9.30695 6.28179 9.86652 6.05 10.45 6.05C11.0335 6.05 11.5931 6.28179 12.0056 6.69437C12.4182 7.10695 12.65 7.66653 12.65 8.25H8.25Z" stroke="#323842" stroke-width="1.32" stroke-miterlimit="10" stroke-linecap="square"/>
<path d="M7.15039 17.6V19.25" stroke="#323842" stroke-width="1.32" stroke-miterlimit="10" stroke-linecap="square"/>
<path d="M14.8496 17.6V19.25" stroke="#323842" stroke-width="1.32" stroke-miterlimit="10" stroke-linecap="square"/>
<path d="M18.6998 12.1L3.2998 12.1L3.2998 14.85C3.2998 15.5794 3.58954 16.2788 4.10526 16.7945C4.62099 17.3103 5.32046 17.6 6.0498 17.6L15.9498 17.6C16.6792 17.6 17.3786 17.3103 17.8943 16.7945C18.4101 16.2788 18.6998 15.5794 18.6998 14.85V12.1Z" stroke="#323842" stroke-width="1.32" stroke-miterlimit="10" stroke-linecap="square"/>
</svg>
