<svg width="22" height="22" viewBox="0 0 22 22" fill="none" xmlns="http://www.w3.org/2000/svg">
<path d="M11 13.75C12.5188 13.75 13.75 12.5188 13.75 11C13.75 9.48122 12.5188 8.25 11 8.25C9.48122 8.25 8.25 9.48122 8.25 11C8.25 12.5188 9.48122 13.75 11 13.75Z" stroke="#459D7A" stroke-width="1.1" stroke-linecap="round" stroke-linejoin="round"/>
<path d="M10.9992 17.05C14.3405 17.05 17.0492 14.3413 17.0492 11C17.0492 7.65869 14.3405 4.95001 10.9992 4.95001C7.6579 4.95001 4.94922 7.65869 4.94922 11C4.94922 14.3413 7.6579 17.05 10.9992 17.05Z" stroke="#459D7A" stroke-width="1.1" stroke-linecap="round" stroke-linejoin="round"/>
<path d="M11 2.75L11 4.95" stroke="#459D7A" stroke-width="1.1" stroke-linecap="round" stroke-linejoin="round"/>
<path d="M16.8327 5.16669L15.2773 6.72209" stroke="#459D7A" stroke-width="1.1" stroke-linecap="round" stroke-linejoin="round"/>
<path d="M19.2508 11L17.0508 11" stroke="#459D7A" stroke-width="1.1" stroke-linecap="round" stroke-linejoin="round"/>
<path d="M16.8327 16.8333L15.2773 15.2779" stroke="#459D7A" stroke-width="1.1" stroke-linecap="round" stroke-linejoin="round"/>
<path d="M11 19.25L11 17.05" stroke="#459D7A" stroke-width="1.1" stroke-linecap="round" stroke-linejoin="round"/>
<path d="M5.16602 16.8333L6.72142 15.2779" stroke="#459D7A" stroke-width="1.1" stroke-linecap="round" stroke-linejoin="round"/>
<path d="M2.75 11L4.95 11" stroke="#459D7A" stroke-width="1.1" stroke-linecap="round" stroke-linejoin="round"/>
<path d="M5.16602 5.16669L6.72142 6.72209" stroke="#459D7A" stroke-width="1.1" stroke-linecap="round" stroke-linejoin="round"/>
</svg>
