<svg width="20" height="20" viewBox="0 0 20 20" fill="none" xmlns="http://www.w3.org/2000/svg">
<path d="M18 10C17.9998 8.47121 17.5615 6.9745 16.737 5.68706C15.9126 4.39963 14.7365 3.37537 13.3481 2.73556C11.9596 2.09575 10.4169 1.86717 8.90257 2.07689C7.38823 2.2866 5.9657 2.92583 4.80337 3.9189C3.64104 4.91197 2.7876 6.21729 2.34407 7.68032C1.90054 9.14336 1.88551 10.7028 2.30075 12.1742C2.71599 13.6455 3.54411 14.967 4.68708 15.9823C5.83004 16.9976 7.23999 17.6641 8.75 17.903L8.75 12.3125L6.719 12.3125L6.719 10H8.75V8.2375C8.75 6.2325 9.9445 5.125 11.7715 5.125C12.3715 5.13332 12.9701 5.18546 13.5625 5.281V7.25H12.5535C12.3816 7.22716 12.2067 7.24331 12.0418 7.29725C11.877 7.35118 11.7264 7.44152 11.6012 7.56158C11.476 7.68163 11.3794 7.82831 11.3186 7.99076C11.2578 8.15321 11.2344 8.32725 11.25 8.5V10L13.469 10L13.114 12.3125H11.25L11.25 17.903C13.1319 17.6053 14.8458 16.6457 16.0832 15.1969C17.3206 13.7481 18.0003 11.9053 18 10Z" fill="#197DCA"/>
</svg>
