<svg width="21" height="20" viewBox="0 0 21 20" fill="none" xmlns="http://www.w3.org/2000/svg">
<path d="M4.375 4.16666H15.75C16.4462 4.16666 17.1139 4.43005 17.6062 4.89889C18.0984 5.36773 18.375 6.00362 18.375 6.66666V14.1667C18.375 14.8297 18.0984 15.4656 17.6062 15.9344C17.1139 16.4033 16.4462 16.6667 15.75 16.6667H4.375C3.67881 16.6667 3.01113 16.4033 2.51884 15.9344C2.02656 15.4656 1.75 14.8297 1.75 14.1667V6.66666C1.75 6.00362 2.02656 5.36773 2.51884 4.89889C3.01113 4.43005 3.67881 4.16666 4.375 4.16666ZM4.375 4.99999C3.9375 4.99999 3.5525 5.14166 3.255 5.39166L10.0625 9.58332L16.87 5.39166C16.5725 5.14166 16.1875 4.99999 15.75 4.99999H4.375ZM10.0625 10.5917L2.73875 6.06666C2.66875 6.24999 2.625 6.45832 2.625 6.66666V14.1667C2.625 14.6087 2.80937 15.0326 3.13756 15.3452C3.46575 15.6577 3.91087 15.8333 4.375 15.8333H15.75C16.2141 15.8333 16.6592 15.6577 16.9874 15.3452C17.3156 15.0326 17.5 14.6087 17.5 14.1667V6.66666C17.5 6.45832 17.4563 6.24999 17.3863 6.06666L10.0625 10.5917Z" fill="#555555"/>
</svg>
