<svg width="26" height="26" viewBox="0 0 26 26" fill="none" xmlns="http://www.w3.org/2000/svg">
<path d="M12.9997 14.8571C14.0254 14.8571 14.8569 14.0257 14.8569 13C14.8569 11.9743 14.0254 11.1429 12.9997 11.1429C11.974 11.1429 11.1426 11.9743 11.1426 13C11.1426 14.0257 11.974 14.8571 12.9997 14.8571Z" stroke="#6E7787" stroke-width="2.22857" stroke-miterlimit="10" stroke-linecap="square"/>
<path d="M4.64328 14.8571C5.66895 14.8571 6.50042 14.0257 6.50042 13C6.50042 11.9743 5.66895 11.1429 4.64328 11.1429C3.6176 11.1429 2.78613 11.9743 2.78613 13C2.78613 14.0257 3.6176 14.8571 4.64328 14.8571Z" stroke="#6E7787" stroke-width="2.22857" stroke-miterlimit="10" stroke-linecap="square"/>
<path d="M21.3571 14.8571C22.3828 14.8571 23.2143 14.0257 23.2143 13C23.2143 11.9743 22.3828 11.1429 21.3571 11.1429C20.3315 11.1429 19.5 11.9743 19.5 13C19.5 14.0257 20.3315 14.8571 21.3571 14.8571Z" stroke="#6E7787" stroke-width="2.22857" stroke-miterlimit="10" stroke-linecap="square"/>
</svg>
