<svg width="14" height="14" viewBox="0 0 14 14" fill="none" xmlns="http://www.w3.org/2000/svg">
<path d="M7 5.5C8.10457 5.5 9 4.60457 9 3.5C9 2.39543 8.10457 1.5 7 1.5C5.89543 1.5 5 2.39543 5 3.5C5 4.60457 5.89543 5.5 7 5.5Z" stroke="#171A1F" stroke-linecap="round" stroke-linejoin="round"/>
<path d="M7 7.5C6.34339 7.5 5.69321 7.62933 5.08658 7.8806C4.47995 8.13188 3.92876 8.50017 3.46447 8.96447C2.52678 9.90215 2 11.1739 2 12.5L12 12.5C12 11.1739 11.4732 9.90215 10.5355 8.96447C9.59785 8.02678 8.32608 7.5 7 7.5Z" stroke="#171A1F" stroke-linecap="round" stroke-linejoin="round"/>
</svg>
